<?xml version="1.0"?>
<svg xmlns="http://www.w3.org/2000/svg" xmlns:xlink="http://www.w3.org/1999/xlink" version="1.1" id="Capa_1" x="0px" y="0px" viewBox="0 0 512.001 512.001" style="enable-background:new 0 0 512.001 512.001;" xml:space="preserve" width="512px" height="512px" class=""><g><path style="fill:#151414" d="M273.621,62.576c-71.136-5.517-139.072,28.725-176.704,89.602l-3.357-8.663  c-1.541-3.976-6.01-5.953-9.987-4.408c-3.975,1.541-5.948,6.012-4.408,9.986l10.338,26.672c1.544,3.983,6.022,5.946,9.987,4.408  l27.994-10.85c3.974-1.541,5.948-6.011,4.408-9.986s-6.012-5.946-9.987-4.408l-11.205,4.343  c34.672-55.226,96.66-86.343,161.729-81.305c4.246,0.34,7.963-2.849,8.292-7.099C281.05,66.618,277.872,62.906,273.621,62.576z" data-original="#EF3C3C" class="" data-old_color="#282121"/><path style="fill:#A800FF" d="M431.146,368.118l-7.093-27.711c-1.042-4.072-5.15-6.559-9.24-5.601l-28.823,6.759  c-4.15,0.973-6.726,5.127-5.752,9.277c0.973,4.151,5.125,6.72,9.277,5.753l10.465-2.454  c-32.158,49.206-86.891,79.195-146.363,79.195c-4.263,0-7.719,3.455-7.719,7.719s3.456,7.719,7.719,7.719  c65.122,0,125.022-33.04,159.924-87.177l2.649,10.35c1.057,4.133,5.267,6.623,9.392,5.564  C429.712,376.452,432.203,372.248,431.146,368.118z" data-original="#70B5E8" class="active-path" data-old_color="#70B5E8"/><path style="fill:#EFEFEF;" d="M197.051,511.647c14.768,0,26.02-13.231,23.648-27.808l-5.835-35.855  c-1.683-8.515-2.644-22.675-18.953-29.53c-1.523-0.639-4.989-1.595-4.919-1.574c-71.528-25.267-5.7-2.014-37.336-13.152  l-15.845-9.811v-18.858c-17.001,8.559-37.868,9.216-55.241,1.19l0.011,17.668l-16.293,9.982l-8.395,2.887h-0.019l0.003,0.006  c-0.108,0.038-34.448,12.195-32.232,11.2c-9.026,3.371-16.658,10.791-17.725,21.176c-0.371,3.613-4.186,25.296-7.532,44.013  c-2.653,14.84,8.757,28.467,23.832,28.467L197.051,511.647L197.051,511.647z" data-original="#EFEFEF" class=""/><path style="fill:#DDDDDD;" d="M19.08,483.181c8.908-56.68,5.65-58.67,12.914-67.296c-6.584,2.272-6.436,2.145-6.351,2.106  c-5.832,2.178-10.914,5.944-14.358,11.274c-1.917,2.967-3.007,6.388-3.368,9.902c-0.371,3.613-4.186,25.296-7.532,44.013  c-2.653,14.84,8.757,28.467,23.832,28.467h18.694C27.837,511.647,16.428,498.021,19.08,483.181z" data-original="#DDDDDD" class=""/><path style="fill:#EAB883;" d="M109.245,419.889l32.173-23.737l0,0l-3.609-2.234V375.06c-17.001,8.559-37.868,9.216-55.241,1.19  l0.011,17.668l-3.647,2.234L109.245,419.889z" data-original="#EAB883" class=""/><path style="fill:#E0A773;" d="M109.245,419.888v-38.003c-9.154,0.071-18.319-1.775-26.676-5.636l0.011,17.668l-3.647,2.234  L109.245,419.888z" data-original="#E0A773"/><g>
	<path style="fill:#DDDDDD;" d="M82.58,393.917l26.665,25.971l-23.801,16.564c-3.473,2.417-8.295,0.798-9.605-3.225l-9.552-29.328   L82.58,393.917z" data-original="#DDDDDD" class=""/>
	<path style="fill:#DDDDDD;" d="M137.81,393.917l-28.565,25.971l23.801,16.564c3.473,2.417,8.294,0.798,9.605-3.225l11.004-29.499   L137.81,393.917z" data-original="#DDDDDD" class=""/>
</g><path style="fill:#151414" d="M119.985,456.556l-21.5-0.05l-14.686,55.186c16.17,0,34.721,0,50.891,0L119.985,456.556z" data-original="#EF3C3C" class="" data-old_color="#282121"/><polygon style="fill:#020202" points="119.985,456.556 98.485,456.506 83.799,511.691 106.004,511.691 120.217,457.425 " data-original="#DD2F2F" class="" data-old_color="#0B0808"/><path style="fill:#050404" d="M109.245,419.889l-19.982,13.906l9.256,22.795c7.503,0,13.95,0,21.453,0l9.256-22.795  L109.245,419.889z" data-original="#F94A46" class="" data-old_color="#241A1A"/><path style="fill:#242121" d="M106.011,422.14l-16.747,11.655l9.256,22.795c7.503,0,13.95,0,21.453,0l0.014-0.033L106.011,422.14z" data-original="#ED3E3E" class="" data-old_color="#3B3030"/><path style="fill:#93482B;" d="M193.066,278.984c-4.782-94.361-138.907-109.033-164.039-17.975  c-3.675,13.364-3.095,20.705-3.055,49.538h167.217C193.194,281.095,193.191,281.468,193.066,278.984z" data-original="#93482B"/><path style="fill:#873921;" d="M84.057,276.589c2.42-31.051,21.493-60.482,53.855-71.832  c-52.509-17.95-107.187,14.824-111.629,71.832c-0.293,3.7-0.326,22.602-0.31,33.958h57.775  C83.73,299.191,83.764,280.288,84.057,276.589z" data-original="#873921"/><g>
	<path style="fill:#EAB883;" d="M51.081,300.821c-14.513-5.172-31.37,4.447-31.37,18.479c0,14.029,16.855,23.652,31.37,18.479   V300.821z" data-original="#EAB883" class=""/>
	<path style="fill:#EAB883;" d="M168.107,300.821c14.513-5.172,31.37,4.447,31.37,18.479c0,14.029-16.855,23.652-31.37,18.479   V300.821z" data-original="#EAB883" class=""/>
</g><g>
	<path style="fill:#E0A773;" d="M21.821,311.047c-1.341,2.486-2.109,5.268-2.109,8.253c0,14.029,16.855,23.652,31.37,18.479v-16.504   C39.654,325.347,26.782,320.246,21.821,311.047z" data-original="#E0A773"/>
	<path style="fill:#E0A773;" d="M168.107,321.274v16.504c14.515,5.173,31.37-4.45,31.37-18.479c0-2.985-0.769-5.767-2.109-8.253   C192.406,320.246,179.534,325.347,168.107,321.274z" data-original="#E0A773"/>
</g><path style="fill:#F7CF9C;" d="M167.566,278.957c1.548,0.149,2.739,1.434,2.739,2.99c0,51.117,0.033,43.643-0.086,46.02  c-3.474,68.538-100.894,79.195-119.149,13.056c-1.006-3.657-1.663-7.072-1.993-11.316c-0.34-4.293-0.198-27.596-0.198-27.521  c0-11.904,10.565-20.986,22.347-19.286c18.556,2.678,45.642,1.638,69.276-18.564c2.429-2.076,6.114-1.405,7.665,1.388  C151.094,270.996,156.918,277.929,167.566,278.957z" data-original="#F7CF9C" class=""/><path style="fill:#EAB883;" d="M84.027,329.706c-0.275-3.474-0.235-34.201-0.21-45.762c-4.494-0.096-8.73-0.488-12.592-1.045  c-11.782-1.7-22.347,7.382-22.347,19.286c0-0.075-0.141,23.229,0.198,27.521c3.075,39.46,39.687,63.832,77.551,53.274  C101.352,375.79,85.902,353.774,84.027,329.706z" data-original="#EAB883" class=""/><g>
	<path style="fill:#DDDDDD;" d="M52.219,480.644c0-4.263-3.456-7.719-7.719-7.719s-7.719,3.455-7.719,7.719v31.047h15.438V480.644z" data-original="#DDDDDD" class=""/>
	<path style="fill:#DDDDDD;" d="M182.483,480.644c0-4.263-3.456-7.719-7.719-7.719s-7.719,3.455-7.719,7.719v31.047h15.438   L182.483,480.644L182.483,480.644z" data-original="#DDDDDD" class=""/>
</g><path style="fill:#EFEFEF;" d="M488.037,312.028c14.768,0,26.02-13.231,23.648-27.808l-5.835-35.855  c-1.683-8.515-2.644-22.675-18.953-29.53c-1.523-0.639-4.989-1.595-4.919-1.574c-71.528-25.267-5.7-2.014-37.336-13.152  l-15.845-9.811V175.44c-17.001,8.559-37.868,9.216-55.241,1.19l0.011,17.668l-16.293,9.982l-8.395,2.887h-0.019l0.003,0.006  c-0.108,0.038-34.448,12.195-32.232,11.2c-5.832,2.178-10.914,5.944-14.358,11.274c-3.514,5.438-1.873,3.421-10.899,53.915  c-2.653,14.84,8.757,28.467,23.832,28.467L488.037,312.028L488.037,312.028z" data-original="#EFEFEF" class=""/><path style="fill:#DDDDDD;" d="M310.067,283.561c8.755-60.089,6.53-59.715,12.914-67.296c-6.584,2.272-6.436,2.145-6.351,2.106  c-9.026,3.371-16.658,10.791-17.725,21.176c-0.371,3.613-4.186,25.296-7.532,44.013c-2.653,14.84,8.757,28.467,23.832,28.467h18.694  C318.824,312.028,307.414,298.401,310.067,283.561z" data-original="#DDDDDD" class=""/><path style="fill:#EAB883;" d="M400.232,220.269l32.173-23.737l0,0l-3.609-2.235V175.44c-17.001,8.559-37.868,9.216-55.241,1.19  l0.011,17.668l-3.647,2.235L400.232,220.269z" data-original="#EAB883" class=""/><path style="fill:#E0A773;" d="M400.231,220.269v-38.003c-9.154,0.071-18.319-1.775-26.676-5.636l0.011,17.668l-3.647,2.234  L400.231,220.269z" data-original="#E0A773"/><g>
	<path style="fill:#DDDDDD;" d="M373.567,194.298l26.665,25.971l-23.801,16.564c-3.473,2.417-8.295,0.798-9.605-3.225l-9.552-29.328   L373.567,194.298z" data-original="#DDDDDD" class=""/>
	<path style="fill:#DDDDDD;" d="M428.796,194.298l-28.565,25.971l23.801,16.564c3.473,2.417,8.294,0.798,9.605-3.225l11.004-29.499   L428.796,194.298z" data-original="#DDDDDD" class=""/>
</g><path style="fill:#A800FF" d="M410.971,256.937l-21.5-0.05l-14.686,55.186c16.17,0,34.721,0,50.891,0L410.971,256.937z" data-original="#52A5D8" class="" data-old_color="#AF00FF"/><polygon style="fill:#A800FF" points="410.971,256.937 389.471,256.886 374.786,312.072 396.991,312.072 411.203,257.805 " data-original="#4297CC" class="" data-old_color="#4297CC"/><path style="fill:#A800FF" d="M400.232,220.269l-19.982,13.906l9.256,22.795c7.503,0,13.95,0,21.453,0l9.256-22.795  L400.232,220.269z" data-original="#70B5E8" class="active-path" data-old_color="#70B5E8"/><path style="fill:#A800FF" d="M396.997,222.52l-16.747,11.655l9.256,22.795c7.503,0,13.95,0,21.453,0l0.014-0.033L396.997,222.52z" data-original="#52A5D8" class="" data-old_color="#AF00FF"/><path style="fill:#93482B;" d="M484.052,79.365C479.27-14.996,345.145-29.668,320.013,61.39  c-3.675,13.364-3.095,20.705-3.055,49.538h167.217C484.181,81.475,484.177,81.849,484.052,79.365z" data-original="#93482B"/><path style="fill:#873921;" d="M377.787,61.389c8.197-29.7,27.993-48.144,51.11-56.252c-41.685-14.25-94.112,2.727-108.885,56.252  c-3.675,13.364-3.095,20.705-3.055,49.538h57.775C374.687,78.669,374.477,73.427,377.787,61.389z" data-original="#873921"/><g>
	<path style="fill:#EAB883;" d="M342.068,101.202c-14.513-5.172-31.37,4.447-31.37,18.479c0,14.029,16.855,23.652,31.37,18.479   V101.202z" data-original="#EAB883" class=""/>
	<path style="fill:#EAB883;" d="M459.093,101.202c14.513-5.172,31.37,4.447,31.37,18.479c0,14.029-16.855,23.652-31.37,18.479   V101.202z" data-original="#EAB883" class=""/>
</g><g>
	<path style="fill:#E0A773;" d="M312.807,111.428c-8.774,16.267,10.714,33.341,29.261,26.732v-16.504   C330.64,125.727,317.769,120.626,312.807,111.428z" data-original="#E0A773"/>
	<path style="fill:#E0A773;" d="M459.093,121.655v16.504c18.554,6.612,38.03-10.473,29.261-26.732   C483.392,120.626,470.521,125.727,459.093,121.655z" data-original="#E0A773"/>
</g><path style="fill:#F7CF9C;" d="M458.552,79.337c1.548,0.149,2.739,1.434,2.739,2.99c0,51.117,0.033,43.643-0.086,46.02  c-3.474,68.538-100.894,79.195-119.149,13.056c-1.006-3.657-1.663-7.072-1.993-11.316c-0.34-4.293-0.198-27.596-0.198-27.521  c0-11.904,10.565-20.986,22.347-19.286c18.557,2.678,45.642,1.638,69.276-18.564c2.429-2.076,6.114-1.405,7.665,1.388  C442.081,71.377,447.904,78.31,458.552,79.337z" data-original="#F7CF9C" class=""/><path style="fill:#EAB883;" d="M377.007,141.403c-1.006-3.657-1.663-7.072-1.993-11.316c-0.275-3.474-0.235-34.201-0.21-45.762  c-4.494-0.096-8.73-0.488-12.592-1.045c-11.782-1.7-22.347,7.382-22.347,19.286c0-0.075-0.141,23.229,0.198,27.521  c0.331,4.244,0.988,7.659,1.993,11.316c10.317,37.379,45.918,50.223,75.558,41.958C399.349,178.165,383.369,164.453,377.007,141.403  z" data-original="#EAB883" class=""/><g>
	<path style="fill:#DDDDDD;" d="M343.206,281.025c0-4.263-3.456-7.719-7.719-7.719s-7.719,3.455-7.719,7.719v31.047h15.438V281.025z   " data-original="#DDDDDD" class=""/>
	<path style="fill:#DDDDDD;" d="M473.469,281.025c0-4.263-3.456-7.719-7.719-7.719s-7.719,3.455-7.719,7.719v31.047h15.438V281.025z   " data-original="#DDDDDD" class=""/>
</g></g> </svg>
