<svg height="400" width="512" viewBox="-69 0 512 512" style="background: #ededed;padding:10px 0;" xmlns="http://www.w3.org/2000/svg">
    <path d="m231.578125 361.582031c0 13.660157-8.121094 24.730469-18.140625 24.730469h-53.128906c-10.023438 0-18.144532-11.070312-18.144532-24.730469v-91.863281c0-13.660156 8.125-24.730469 18.144532-24.730469h53.128906c10.019531 0 18.140625 11.070313 18.140625 24.730469zm0 0"
          fill="#ffd0c6"/>
    <path d="m372.722656 474.984375-24.585937-102.808594c-7.71875-25.398437-33.65625-57.527343-75.171875-57.527343h-41.371094l-.0625.09375c-21.292969 31.738281-68.140625 31.691406-89.363281-.09375h-41.578125c-41.515625 0-64.554688 28.046874-75.171875 57.527343l-24.585938 102.808594c-4.519531 18.894531 9.9375 37.015625 29.523438 37.015625h312.839843c19.589844 0 34.042969-18.121094 29.527344-37.015625zm0 0"
          fill="#787ebe"/>
    <path d="m372.722656 474.984375-24.585937-102.808594c-7.71875-25.398437-33.65625-57.527343-75.171875-57.527343h-41.371094l-.019531.03125c40.742187.675781 66.21875 32.371093 73.855469 57.496093l24.585937 102.808594c4.515625 18.894531-9.9375 37.015625-29.527344 37.015625h42.707031c19.589844 0 34.042969-18.121094 29.527344-37.015625zm0 0"
          fill="#5a69b4"/>
    <path d="m293.082031 118.472656c-1.34375-.136718-2.683593.0625-3.992187.546875-5.484375-67.261719-39.929688-119.019531-102.3125-119.019531-62.382813 0-96.832032 51.757812-102.3125 119.019531-1.308594-.488281-2.648438-.683593-3.992188-.546875-8.816406.894532-14.53125 15.632813-12.761718 32.917969 1.769531 17.289063 10.359374 30.570313 19.171874 29.675781.246094-.027344.484376-.066406.726563-.113281 10.84375 55.667969 44.132813 95.953125 99.167969 95.953125s88.324218-40.285156 99.171875-95.953125c.238281.046875.480469.085937.722656.113281 8.816406.894532 17.402344-12.386718 19.171875-29.675781 1.769531-17.285156-3.945312-32.023437-12.761719-32.917969zm0 0"
          fill="#fee2d8"/>
    <path d="m293.082031 118.472656c-1.34375-.136718-2.683593.0625-3.992187.546875-5.484375-67.261719-39.929688-119.019531-102.3125-119.019531-6.546875 0-12.785156.578125-18.714844 1.675781 108.441406 31.96875 103.476562 232.824219 0 273.542969 5.929688 1.097656 12.164062 1.6875 18.714844 1.6875 55.035156 0 88.324218-40.285156 99.167968-95.953125.238282.046875.480469.085937.726563.113281 8.8125.894532 17.398437-12.386718 19.171875-29.675781 1.769531-17.285156-3.945312-32.023437-12.761719-32.917969zm0 0"
          fill="#ffd0c6"/>
    <path d="m250.113281 489.519531h-13.96875c-20.191406 0-36.554687-16.367187-36.554687-36.558593v-31.023438c0-4.757812 3.855468-8.613281 8.613281-8.613281h69.855469c4.753906 0 8.613281 3.855469 8.613281 8.613281v31.023438c0 20.191406-16.367187 36.558593-36.558594 36.558593zm0 0"
          fill="#ffd778"/>
    <path d="m286.671875 442.015625v-20.078125c0-4.757812-3.859375-8.613281-8.613281-8.613281h-69.855469c-4.757813 0-8.613281 3.855469-8.613281 8.613281v20.078125"
          fill="#fec250"/>
    <path d="m276.195312 92.59375h-178.832031c-7.046875 0-12.289062 6.953125-10.78125 14.296875l7.761719 49.609375c1.109375 5.40625 5.597656 9.257812 10.78125 9.257812h27.007812 28.796876c5.386718 0 9.988281-4.152343 10.882812-9.820312l3.367188-20.722656c.765624-4.734375 4.164062-8.707032 8.800781-9.917969.078125-.019531.152343-.039063.226562-.058594 6.734375-1.664062 13.484375 2.75 14.898438 9.539063l4.535156 21.722656c1.105469 5.402344 5.59375 9.257812 10.777344 9.257812h27.007812 28.796875c5.386719 0 9.988282-4.152343 10.882813-9.820312l5.972656-49.609375c1.132813-7.183594-4.054687-13.734375-10.882813-13.734375zm0 0"
          fill="#6e7081"/>
</svg>